<?xml version="1.0" encoding="utf-8"?>
<!-- Generator: Adobe Illustrator 22.1.0, SVG Export Plug-In . SVG Version: 6.00 Build 0)  -->
<svg version="1.1" id="Capa_1" xmlns="http://www.w3.org/2000/svg" xmlns:xlink="http://www.w3.org/1999/xlink" x="0px" y="0px"
	 viewBox="0 0 266.2 350" style="enable-background:new 0 0 266.2 350;" xml:space="preserve">
<g>
	<path d="M133.1,171.2c38.9,0,70.5-38.3,70.5-85.6c0-47.3-10.4-85.6-70.5-85.6S62.6,38.3,62.6,85.6
		C62.6,132.9,94.2,171.2,133.1,171.2z"/>
	<path d="M0,301.9C0,299,0,301,0,301.9L0,301.9z"/>
	<path d="M266.2,304.1C266.2,303.3,266.2,298.6,266.2,304.1L266.2,304.1z"/>
	<path d="M266,298.4c-1.3-82.3-12.1-105.8-94.4-120.7c0,0-11.6,14.8-38.6,14.8s-38.6-14.8-38.6-14.8c-81.4,14.7-92.8,37.8-94.3,118
		c-0.1,6.5-0.2,6.9-0.2,6.1c0,1.4,0,4.1,0,8.7c0,0,19.6,39.5,133.1,39.5c113.5,0,133.1-39.5,133.1-39.5c0-3,0-5,0-6.4
		C266.2,304.6,266.1,303.7,266,298.4z"/>
</g>
</svg>
