<?xml version="1.0" encoding="iso-8859-1"?>
<!-- Generator: Adobe Illustrator 19.0.0, SVG Export Plug-In . SVG Version: 6.00 Build 0)  -->
<svg fill="#889bb0" version="1.1" id="Capa_1" xmlns="http://www.w3.org/2000/svg" xmlns:xlink="http://www.w3.org/1999/xlink" x="0px" y="0px"
	 viewBox="0 0 512 512" style="enable-background:new 0 0 512 512;" xml:space="preserve">
<g>
	<g>
		<path d="M96,405.333H53.333C23.915,405.333,0,429.248,0,458.667c0,5.888,4.779,10.667,10.667,10.667h128
			c5.888,0,10.667-4.779,10.667-10.667C149.333,429.248,125.419,405.333,96,405.333z M23.168,448
			c4.395-12.416,16.256-21.333,30.165-21.333H96c13.909,0,25.771,8.917,30.165,21.333H23.168z"/>
	</g>
</g>
<g>
	<g>
		<path d="M458.667,405.333H416c-29.419,0-53.333,23.915-53.333,53.333c0,5.888,4.779,10.667,10.667,10.667h128
			c5.888,0,10.667-4.779,10.667-10.667C512,429.248,488.085,405.333,458.667,405.333z M385.835,448
			c4.395-12.416,16.256-21.333,30.165-21.333h42.667c13.909,0,25.771,8.917,30.165,21.333H385.835z"/>
	</g>
</g>
<g>
	<g>
		<path d="M74.667,128c-17.643,0-32,14.357-32,32v256c0,5.888,4.779,10.667,10.667,10.667H96c5.888,0,10.667-4.779,10.667-10.667
			V160C106.667,142.357,92.309,128,74.667,128z M85.333,405.333H64V160c0-5.867,4.8-10.667,10.667-10.667
			c5.867,0,10.667,4.8,10.667,10.667V405.333z"/>
	</g>
</g>
<g>
	<g>
		<path d="M74.667,42.667c-29.419,0-53.333,23.915-53.333,53.333c0,29.419,23.915,53.333,53.333,53.333
			C104.085,149.333,128,125.419,128,96S104.085,42.667,74.667,42.667z M74.667,128c-17.643,0-32-14.357-32-32s14.357-32,32-32
			c17.643,0,32,14.357,32,32C106.667,113.643,92.309,128,74.667,128z"/>
	</g>
</g>
<g>
	<g>
		<path d="M437.333,42.667C407.915,42.667,384,66.581,384,96c0,29.419,23.915,53.333,53.333,53.333
			c29.419,0,53.333-23.915,53.333-53.333S466.752,42.667,437.333,42.667z M437.333,128c-17.643,0-32-14.357-32-32s14.357-32,32-32
			c17.643,0,32,14.357,32,32C469.333,113.643,454.976,128,437.333,128z"/>
	</g>
</g>
<g>
	<g>
		<path d="M437.333,128c-17.643,0-32,14.357-32,32v256c0,5.888,4.779,10.667,10.667,10.667h42.667
			c5.888,0,10.667-4.779,10.667-10.667V160C469.333,142.357,454.976,128,437.333,128z M448,405.333h-21.333V160
			c0-5.867,4.8-10.667,10.667-10.667c5.867,0,10.667,4.8,10.667,10.667V405.333z"/>
	</g>
</g>
<g>
	<g>
		<path d="M427.883,126.592c-5.397-2.304-11.691,0.171-14.016,5.611C388.864,190.635,320.96,234.667,256,234.667
			c-56.491,0-128.853-35.179-157.867-102.464c-2.347-5.397-8.64-7.936-14.037-5.547c-5.397,2.325-7.893,8.597-5.547,14.016
			C107.371,207.509,181.995,256,256,256c74.197,0,148.843-48.512,177.493-115.392C435.797,135.189,433.301,128.917,427.883,126.592z
			"/>
	</g>
</g>
<g>
</g>
<g>
</g>
<g>
</g>
<g>
</g>
<g>
</g>
<g>
</g>
<g>
</g>
<g>
</g>
<g>
</g>
<g>
</g>
<g>
</g>
<g>
</g>
<g>
</g>
<g>
</g>
<g>
</g>
</svg>
