<svg 
 xmlns="http://www.w3.org/2000/svg"
 xmlns:xlink="http://www.w3.org/1999/xlink"
 width="129px" height="9px">
<path fill-rule="evenodd"  fill="rgb(5, 46, 92)"
 d="M124.500,9.000 C122.015,9.000 120.000,6.985 120.000,4.500 C120.000,2.015 122.015,-0.000 124.500,-0.000 C126.985,-0.000 129.000,2.015 129.000,4.500 C129.000,6.985 126.985,9.000 124.500,9.000 ZM104.500,9.000 C102.015,9.000 100.000,6.985 100.000,4.500 C100.000,2.015 102.015,-0.000 104.500,-0.000 C106.985,-0.000 109.000,2.015 109.000,4.500 C109.000,6.985 106.985,9.000 104.500,9.000 ZM84.500,9.000 C82.015,9.000 80.000,6.985 80.000,4.500 C80.000,2.015 82.015,-0.000 84.500,-0.000 C86.985,-0.000 89.000,2.015 89.000,4.500 C89.000,6.985 86.985,9.000 84.500,9.000 ZM64.500,9.000 C62.015,9.000 60.000,6.985 60.000,4.500 C60.000,2.015 62.015,-0.000 64.500,-0.000 C66.985,-0.000 69.000,2.015 69.000,4.500 C69.000,6.985 66.985,9.000 64.500,9.000 ZM44.500,9.000 C42.015,9.000 40.000,6.985 40.000,4.500 C40.000,2.015 42.015,-0.000 44.500,-0.000 C46.985,-0.000 49.000,2.015 49.000,4.500 C49.000,6.985 46.985,9.000 44.500,9.000 ZM24.500,9.000 C22.015,9.000 20.000,6.985 20.000,4.500 C20.000,2.015 22.015,-0.000 24.500,-0.000 C26.985,-0.000 29.000,2.015 29.000,4.500 C29.000,6.985 26.985,9.000 24.500,9.000 ZM4.500,9.000 C2.015,9.000 -0.000,6.985 -0.000,4.500 C-0.000,2.015 2.015,-0.000 4.500,-0.000 C6.985,-0.000 9.000,2.015 9.000,4.500 C9.000,6.985 6.985,9.000 4.500,9.000 Z"/>
</svg>