<?xml version="1.0" encoding="utf-8"?>
<!-- Generator: Adobe Illustrator 23.1.0, SVG Export Plug-In . SVG Version: 6.00 Build 0)  -->
<svg version="1.1" id="Слой_1" xmlns="http://www.w3.org/2000/svg" xmlns:xlink="http://www.w3.org/1999/xlink" x="0px" y="0px"
	 viewBox="0 0 129 55" style="enable-background:new 0 0 129 55;" xml:space="preserve">
<style type="text/css">
	.st0{fill-rule:evenodd;clip-rule:evenodd;fill:#052E5C;}
	.st1{enable-background:new    ;}
	.st2{fill:#FFFFFF;}
</style>
<path class="st0" d="M124.5,31c-2.5,0-4.5-2-4.5-4.5s2-4.5,4.5-4.5s4.5,2,4.5,4.5S127,31,124.5,31z M104.5,31c-2.5,0-4.5-2-4.5-4.5
	s2-4.5,4.5-4.5s4.5,2,4.5,4.5S107,31,104.5,31z M84.5,31C82,31,80,29,80,26.5s2-4.5,4.5-4.5s4.5,2,4.5,4.5S87,31,84.5,31z M64.5,31
	C62,31,60,29,60,26.5s2-4.5,4.5-4.5s4.5,2,4.5,4.5S67,31,64.5,31z M44.5,31C42,31,40,29,40,26.5s2-4.5,4.5-4.5s4.5,2,4.5,4.5
	S47,31,44.5,31z M24.5,31C22,31,20,29,20,26.5s2-4.5,4.5-4.5s4.5,2,4.5,4.5S27,31,24.5,31z M4.5,31C2,31,0,29,0,26.5S2,22,4.5,22
	S9,24,9,26.5S7,31,4.5,31z"/>
<path class="st0" d="M64.5,0C79.7,0,92,12.3,92,27.5S79.7,55,64.5,55S37,42.7,37,27.5S49.3,0,64.5,0z"/>
<g class="st1">
	<path class="st2" d="M43.2,30.3v0.8h-0.7v1.5c0,0.3,0,0.5,0,0.5c0,0,0,0.1,0.1,0.1c0,0,0.1,0,0.2,0c0.1,0,0.2,0,0.4-0.1l0.1,0.7
		C43,34,42.8,34,42.5,34c-0.2,0-0.3,0-0.5-0.1s-0.2-0.1-0.3-0.2c-0.1-0.1-0.1-0.2-0.1-0.4c0-0.1,0-0.3,0-0.7v-1.6h-0.4v-0.8h0.4
		v-0.7l1-0.6v1.3H43.2z"/>
	<path class="st2" d="M43.6,32.1c0-0.3,0.1-0.6,0.2-0.9s0.4-0.5,0.7-0.7c0.3-0.2,0.6-0.2,1-0.2c0.5,0,1,0.2,1.4,0.5
		c0.4,0.4,0.5,0.8,0.5,1.4c0,0.5-0.2,1-0.5,1.4C46.5,33.8,46,34,45.5,34c-0.3,0-0.6-0.1-1-0.2c-0.3-0.2-0.5-0.4-0.7-0.7
		C43.7,32.8,43.6,32.5,43.6,32.1z M44.6,32.1c0,0.4,0.1,0.6,0.3,0.8s0.4,0.3,0.6,0.3s0.5-0.1,0.6-0.3c0.2-0.2,0.3-0.5,0.3-0.8
		c0-0.4-0.1-0.6-0.3-0.8c-0.2-0.2-0.4-0.3-0.6-0.3s-0.5,0.1-0.6,0.3S44.6,31.8,44.6,32.1z"/>
</g>
<g class="st1">
	<path class="st2" d="M50.4,30.4l2.6-0.3c0.1,0.6,0.3,1.1,0.7,1.4c0.4,0.3,0.8,0.5,1.3,0.5c0.5,0,1-0.2,1.4-0.7
		c0.4-0.4,0.6-1.1,0.6-2c0-0.8-0.2-1.5-0.6-1.9c-0.4-0.4-0.9-0.6-1.5-0.6c-0.7,0-1.4,0.3-2,1l-2.1-0.3l1.3-7.1h6.9V23H54l-0.4,2.3
		c0.6-0.3,1.2-0.4,1.8-0.4c1.2,0,2.1,0.4,2.9,1.3c0.8,0.8,1.2,1.9,1.2,3.3c0,1.1-0.3,2.1-1,3c-0.9,1.2-2.1,1.8-3.7,1.8
		c-1.3,0-2.3-0.3-3.1-1C51,32.5,50.6,31.6,50.4,30.4z"/>
	<path class="st2" d="M65.3,20.3c1.3,0,2.3,0.5,3.1,1.4c0.9,1.1,1.3,3,1.3,5.5c0,2.6-0.4,4.4-1.3,5.5c-0.7,0.9-1.8,1.4-3.1,1.4
		c-1.3,0-2.4-0.5-3.2-1.5c-0.8-1-1.2-2.8-1.2-5.4c0-2.6,0.4-4.4,1.3-5.5C63,20.7,64,20.3,65.3,20.3z M65.3,22.4
		c-0.3,0-0.6,0.1-0.8,0.3c-0.2,0.2-0.4,0.6-0.6,1.1c-0.2,0.7-0.3,1.8-0.3,3.4c0,1.6,0.1,2.7,0.2,3.3c0.2,0.6,0.4,1,0.6,1.2
		c0.2,0.2,0.5,0.3,0.8,0.3c0.3,0,0.6-0.1,0.8-0.3c0.2-0.2,0.4-0.6,0.6-1.1c0.2-0.7,0.3-1.8,0.3-3.4c0-1.6-0.1-2.7-0.2-3.3
		c-0.2-0.6-0.4-1-0.6-1.2C65.9,22.5,65.6,22.4,65.3,22.4z"/>
</g>
<g class="st1">
	<path class="st2" d="M71.5,20c0-1.2,0.3-2.1,0.8-2.7c0.5-0.6,1.3-0.9,2.2-0.9c0.9,0,1.7,0.3,2.2,0.9c0.5,0.6,0.8,1.5,0.8,2.7
		c0,1.2-0.3,2.1-0.8,2.7s-1.3,0.9-2.2,0.9c-0.9,0-1.7-0.3-2.2-0.9C71.8,22.1,71.5,21.2,71.5,20z M73.5,20c0,0.9,0.1,1.5,0.3,1.8
		c0.2,0.2,0.4,0.3,0.6,0.3c0.3,0,0.5-0.1,0.6-0.3c0.2-0.3,0.3-0.9,0.3-1.8s-0.1-1.5-0.3-1.8c-0.2-0.2-0.4-0.3-0.6-0.3
		c-0.3,0-0.5,0.1-0.6,0.3C73.6,18.5,73.5,19.1,73.5,20z M76.5,30.8h-1.9l7.2-14.4h1.9L76.5,30.8z M80.7,27.2c0-1.2,0.3-2.1,0.8-2.7
		c0.5-0.6,1.3-0.9,2.2-0.9c0.9,0,1.7,0.3,2.2,0.9c0.5,0.6,0.8,1.5,0.8,2.7c0,1.2-0.3,2.1-0.8,2.7s-1.3,0.9-2.2,0.9
		c-0.9,0-1.7-0.3-2.2-0.9C81,29.3,80.7,28.4,80.7,27.2z M82.7,27.2c0,0.9,0.1,1.5,0.3,1.8c0.2,0.2,0.4,0.3,0.6,0.3
		c0.3,0,0.5-0.1,0.6-0.3c0.2-0.3,0.3-0.9,0.3-1.8c0-0.9-0.1-1.5-0.3-1.8c-0.2-0.2-0.4-0.3-0.7-0.3c-0.3,0-0.5,0.1-0.6,0.3
		C82.8,25.7,82.7,26.3,82.7,27.2z"/>
</g>
</svg>
